{
 "accessors": [
  {
   "componentType": 5126,
   "type": "VEC3",
   "count": 1006,
   "max": [
    -3,
    -7,
    74
   ],
   "min": [
    -6,
    -8,
    71
   ],
   "bufferView": 0
  },
  {
   "componentType": 5126,
   "type": "VEC3",
   "count": 1006,
   "bufferView": 1
  },
  {
   "componentType": 5123,
   "type": "SCALAR",
   "count": 3888,
   "bufferView": 2
  },
  {
   "componentType": 5126,
   "type": "VEC3",
   "count": 1252,
   "max": [
    -3,
    -25.490999221801758,
    76.5
   ],
   "min": [
    -5.980500221252441,
    -26.509000778198242,
    73.5
   ],
   "bufferView": 3
  },
  {
   "componentType": 5126,
   "type": "VEC3",
   "count": 1252,
   "bufferView": 4
  },
  {
   "componentType": 5123,
   "type": "SCALAR",
   "count": 4206,
   "bufferView": 5
  },
  {
   "componentType": 5126,
   "type": "VEC3",
   "count": 25,
   "max": [
    -12.818699836730957,
    -15,
    48
   ],
   "min": [
    -15,
    -17,
    36
   ],
   "bufferView": 6
  },
  {
   "componentType": 5126,
   "type": "VEC3",
   "count": 25,
   "bufferView": 7
  },
  {
   "componentType": 5121,
   "type": "SCALAR",
   "count": 45,
   "bufferView": 8
  },
  {
   "componentType": 5126,
   "type": "VEC3",
   "count": 1227,
   "max": [
    6,
    -6,
    82
   ],
   "min": [
    -16,
    -26,
    3
   ],
   "bufferView": 9
  },
  {
   "componentType": 5126,
   "type": "VEC3",
   "count": 1227,
   "bufferView": 10
  },
  {
   "componentType": 5123,
   "type": "SCALAR",
   "count": 2922,
   "bufferView": 11
  },
  {
   "componentType": 5126,
   "type": "VEC3",
   "count": 7205,
   "max": [
    4.079999923706055,
    -7.040999889373779,
    94.00029754638672
   ],
   "min": [
    -14.75,
    -32.000999450683594,
    1
   ],
   "bufferView": 12
  },
  {
   "componentType": 5126,
   "type": "VEC3",
   "count": 7205,
   "bufferView": 13
  },
  {
   "componentType": 5123,
   "type": "SCALAR",
   "count": 21135,
   "bufferView": 14
  }
 ],
 "asset": {
  "version": "2.0",
  "generator": "clara.io"
 },
 "bufferViews": [
  {
   "buffer": 0,
   "byteOffset": 0,
   "byteLength": 12072,
   "target": 34962,
   "byteStride": 12
  },
  {
   "buffer": 0,
   "byteOffset": 12072,
   "byteLength": 12072,
   "target": 34962,
   "byteStride": 12
  },
  {
   "buffer": 0,
   "byteOffset": 24144,
   "byteLength": 7776,
   "target": 34963
  },
  {
   "buffer": 0,
   "byteOffset": 31920,
   "byteLength": 15024,
   "target": 34962,
   "byteStride": 12
  },
  {
   "buffer": 0,
   "byteOffset": 46944,
   "byteLength": 15024,
   "target": 34962,
   "byteStride": 12
  },
  {
   "buffer": 0,
   "byteOffset": 61968,
   "byteLength": 8412,
   "target": 34963
  },
  {
   "buffer": 0,
   "byteOffset": 70380,
   "byteLength": 300,
   "target": 34962,
   "byteStride": 12
  },
  {
   "buffer": 0,
   "byteOffset": 70680,
   "byteLength": 300,
   "target": 34962,
   "byteStride": 12
  },
  {
   "buffer": 0,
   "byteOffset": 70980,
   "byteLength": 45,
   "target": 34963
  },
  {
   "buffer": 0,
   "byteOffset": 71028,
   "byteLength": 14724,
   "target": 34962,
   "byteStride": 12
  },
  {
   "buffer": 0,
   "byteOffset": 85752,
   "byteLength": 14724,
   "target": 34962,
   "byteStride": 12
  },
  {
   "buffer": 0,
   "byteOffset": 100476,
   "byteLength": 5844,
   "target": 34963
  },
  {
   "buffer": 0,
   "byteOffset": 106320,
   "byteLength": 86460,
   "target": 34962,
   "byteStride": 12
  },
  {
   "buffer": 0,
   "byteOffset": 192780,
   "byteLength": 86460,
   "target": 34962,
   "byteStride": 12
  },
  {
   "buffer": 0,
   "byteOffset": 279240,
   "byteLength": 42270,
   "target": 34963
  }
 ],
 "buffers": [
  {
   "byteLength": 321512,
   "uri": "data:application/octet-stream;base64,"
  }
 ],
 "materials": [
  {
   "name": "color_12568524",
   "pbrMetallicRoughness": {
    "baseColorFactor": [
     0.7490196078431373,
     0.7803921568627451,
     0.8,
     1
    ],
    "roughnessFactor": 0.25
   }
  },
  {
   "name": "color_14900002",
   "pbrMetallicRoughness": {
    "baseColorFactor": [
     0.8901960784313725,
     0.3568627450980392,
     0.13333333333333333,
     1
    ],
    "roughnessFactor": 0.25,
    "metallicFactor": 0
   }
  },
  {
   "name": "color_15277357",
   "pbrMetallicRoughness": {
    "baseColorFactor": [
     0.9137254901960784,
     0.11372549019607843,
     0.17647058823529413,
     1
    ],
    "roughnessFactor": 0.25,
    "metallicFactor": 0
   }
  },
  {
   "name": "color_2829873",
   "pbrMetallicRoughness": {
    "baseColorFactor": [
     0,
     0,
     0,
     1
    ],
    "roughnessFactor": 0.25,
    "metallicFactor": 0
   }
  },
  {
   "name": "color_12291362",
   "pbrMetallicRoughness": {
    "baseColorFactor": [
     0.7333333333333333,
     0.5529411764705883,
     0.13333333333333333,
     1
    ],
    "roughnessFactor": 0.1961,
    "metallicFactor": 0
   }
  }
 ],
 "meshes": [
  {
   "primitives": [
    {
     "indices": 2,
     "material": 2,
     "mode": 4,
     "attributes": {
      "POSITION": 0,
      "NORMAL": 1
     }
    }
   ]
  },
  {
   "primitives": [
    {
     "indices": 5,
     "material": 1,
     "mode": 4,
     "attributes": {
      "POSITION": 3,
      "NORMAL": 4
     }
    }
   ]
  },
  {
   "primitives": [
    {
     "indices": 8,
     "material": 4,
     "mode": 4,
     "attributes": {
      "POSITION": 6,
      "NORMAL": 7
     }
    }
   ]
  },
  {
   "primitives": [
    {
     "indices": 11,
     "material": 3,
     "mode": 4,
     "attributes": {
      "POSITION": 9,
      "NORMAL": 10
     }
    }
   ]
  },
  {
   "primitives": [
    {
     "indices": 14,
     "material": 0,
     "mode": 4,
     "attributes": {
      "POSITION": 12,
      "NORMAL": 13
     }
    }
   ]
  }
 ],
 "nodes": [
  {
   "name": "UntitledScene",
   "translation": [
    -0.018799999728798866,
    0,
    0
   ],
   "children": [
    1
   ]
  },
  {
   "name": "tinker_root",
   "translation": [
    0,
    0,
    -0.09880000352859497
   ],
   "scale": [
    0.009999999776482582,
    0.009999999776482582,
    0.009999999776482582
   ],
   "children": [
    2,
    3,
    4,
    5,
    6
   ]
  },
  {
   "name": "group_0_15277357",
   "mesh": 0
  },
  {
   "name": "group_0_14900002",
   "mesh": 1
  },
  {
   "name": "group_0_12291362",
   "mesh": 2
  },
  {
   "name": "group_0_2829873",
   "mesh": 3
  },
  {
   "name": "group_0_12568524",
   "mesh": 4
  }
 ],
 "scene": 0,
 "scenes": [
  {
   "nodes": [
    0
   ]
  }
 ]
}